<svg xmlns="http://www.w3.org/2000/svg" viewBox="0 0 529.98 506"><defs><style>.cls-1{fill:#fff;}</style></defs><g id="Layer_2" data-name="Layer 2"><g id="Layer_1-2" data-name="Layer 1"><path class="cls-1" d="M27.6,156.23V108.59l36.77-3.39v21.45l102.87-9.17v38.75ZM128.82,80.8l-15.3,1.77v9.35L12.38,102.63V1H49V23.24l28-2.85V1h36.59v9.78L128.82,9V1h36.77V104.38l-36.77,3.75ZM49,51.57V68.72l28-3v-17Zm64.55-9v8.16L128.82,49V40.83Z" transform="translate(-0.7 -0.5)"/><path d="M165.09,1.5V103.93l-35.77,3.65V80.24l-1.12.13L113.9,82l-.88.1v9.35L12.88,102.07V1.5H48.47V23.79l1.1-.11,27-2.75.9-.09V1.5H113v9.84l1.11-.13,14.3-1.65.89-.1v-8h35.77M113,51.31l1.11-.12,14.3-1.66.89-.1V40.27l-1.12.13-14.3,1.65-.88.1v9.16m-64.55,18,1.11-.12,27-2.94.9-.1v-18l-1.11.11L49.37,51l-.9.09V69.28m15.4,36.47V127.2l1.09-.1L166.74,118v37.7H28.1V109.05l35.77-3.3M166.09.5H128.32V8.57L114,10.22V.5H76.43V19.94l-27,2.75V.5H11.88V103.18L114,92.37V83l14.3-1.65v27.32l37.77-3.85V.5ZM114,50.19V43l14.3-1.65v7.15L114,50.19Zm-64.55,18V52l27-2.76v16l-27,2.93Zm15.4,36.49L27.1,108.13v48.6H167.74V116.94L64.87,126.1V104.65Z" transform="translate(-0.7 -0.5)"/><path class="cls-1" d="M303.78,1h36.77V55.88L360,53.69V90.08l-19.44,2.21V153l-36.77,7.14Zm-61,154.49c-29.77,0-47.54-16.12-47.54-43.14V90c0-8.19,2.16-14.25,6.63-18.52l.89-.87H188.07V39.51h109V70.59H282.6l.89.87c4.47,4.27,6.63,10.33,6.63,18.52v22.37C290.12,139.37,272.42,155.49,242.77,155.49Zm-.19-81.23c-7.94,0-10.76,7.18-10.76,13.89V109.6c0,6.71,2.87,13.89,11,13.89s10.76-7.18,10.76-13.89V88.15C253.53,81.44,250.66,74.26,242.58,74.26ZM208.24,33.37V1.73h69.6V33.37Z" transform="translate(-0.7 -0.5)"/><path d="M340.05,1.5V56.44l1.11-.12,18.33-2.07V89.64l-18.55,2.1-.89.1V152.6l-35.77,7V1.5h35.77m-62.71.73V32.87h-68.6V2.23h68.6M296.59,40V70.09H281.35l1.8,1.73c4.36,4.17,6.47,10.12,6.47,18.16v22.37c0,13.23-4.3,24.1-12.46,31.46S257.17,155,242.77,155c-29.46,0-47-15.94-47-42.64V90c0-8,2.11-14,6.47-18.16l1.8-1.73H188.57V40h108m-53.82,84c6.95,0,11.26-5.52,11.26-14.39V88.15c0-8.88-4.38-14.39-11.45-14.39s-11.27,5.51-11.27,14.39V109.6c0,8.87,4.39,14.39,11.46,14.39M341.05.5H303.28V160.76l37.77-7.33V92.73l19.44-2.2V53.13l-19.44,2.19V.5Zm-62.71.73h-70.6V33.87h70.6V1.23ZM297.59,39h-110V71.09h13.94c-4.4,4.22-6.78,10.27-6.78,18.89v22.37c0,27.69,18.33,43.64,48,43.64s47.85-16,47.85-43.64V90c0-8.62-2.38-14.67-6.78-18.89h13.75V39Zm-54.82,84c-7.34,0-10.46-6.24-10.46-13.39V88.15c0-7.15,3.12-13.39,10.27-13.39C249.92,74.76,253,81,253,88.15V109.6c0,7.15-3.11,13.39-10.26,13.39Z" transform="translate(-0.7 -0.5)"/><path class="cls-1" d="M493.41,1h36.77V153l-36.77,7.14ZM364.69,132.57,410,63.73V37H375.5V3.38H483.79V37H447.67V64.09l43.27,66.64-30,20.35-32.4-47.31-33.87,49.15Z" transform="translate(-0.7 -0.5)"/><path d="M529.68,1.5V152.6l-35.77,7V1.5h35.77M483.29,3.88V36.54H447.17v27.7l.16.25,42.92,66.11-29.17,19.79-31.71-46.3-.82-1.21-.83,1.2-33.17,48.14-29.17-19.79,44.93-68.3.17-.25V36.54H376V3.88H483.29M530.68.5H492.91V160.76l37.77-7.33V.5ZM484.29,2.88H375V37.54h34.48v26L364,132.71l30.81,20.9,33.74-49,32.27,47.13,30.8-20.91L448.17,63.94V37.54h36.12V2.88Z" transform="translate(-0.7 -0.5)"/><path class="cls-1" d="M120.07,331.44c-18.72,0-29-8.74-29-24.62a27.75,27.75,0,0,1,.55-5.59l.13-.66-4,.38V279.22l79.32-8v22.64l-6.27.57.25.63a31.46,31.46,0,0,1,2.35,11.73c0,15.42-11.6,24.62-31,24.62Zm12.3-34.38a13.52,13.52,0,0,0-1.54.09l-8.06.74c-4,.47-6.14,2-6,4.2.15,2,2,3.13,5.05,3.13a15.34,15.34,0,0,0,1.74-.11l8-.73c3.84-.24,6-1.65,6-4C137.62,298.34,135.61,297.06,132.37,297.06Zm-115.22,34V257.76l34.94-3.56v44.37l33.19-3.3v35.8Zm83.43-81.56,55.48-5.77v23.75l-55.48,5.77Zm-42.31-.77c-32.71,0-53-15.12-53-39.47S25.56,170,58.27,170s53,15.05,53,39.29S91,248.74,58.27,248.74Zm0-51.34c-10.3,0-16.45,4.5-16.45,12,0,7.32,6.15,11.69,16.45,11.69s16.27-4.37,16.27-11.69S68.31,197.4,58.27,197.4Zm63.21-23.94h36.78v16.38l19.43-2.2V224l-19.43,2.2V238l-36.78,3.75Z" transform="translate(-0.7 -0.5)"/><path d="M58.27,170.48c32.41,0,52.55,14.86,52.55,38.79s-20.14,39-52.55,39-52.54-14.93-52.54-39,20.13-38.79,52.54-38.79m0,51.16C68.62,221.64,75,217,75,209.45c0-7.74-6.42-12.55-16.77-12.55s-17,4.81-17,12.55,6.34,12.19,17,12.19M157.76,174V190.4l1.11-.12,18.32-2.08v35.39l-18.55,2.1-.88.1v11.73L122,241.17V174h35.78m-2.2,70.34V267l-54.48,5.66V250l54.48-5.66m-104,10.45v44.37l1.1-.11,32.09-3.19v34.75H17.65V258.21l33.94-3.46m115,17.05v21.64l-5.14.46-1.34.13.5,1.24a31.13,31.13,0,0,1,2.31,11.55c0,15.1-11.42,24.12-30.54,24.12H120.07c-18.4,0-28.52-8.57-28.52-24.12a26.7,26.7,0,0,1,.53-5.49l.26-1.32-1.34.13-2.75.26V279.67l78.31-7.87m-44.69,33.92a15.43,15.43,0,0,0,1.77-.11l8-.73c5.6-.35,6.44-3,6.44-4.48,0-2.37-2.2-3.84-5.75-3.84a14,14,0,0,0-1.58.09l-8.09.74c-5.84.69-6.5,3.27-6.38,4.74.08,1.08.79,3.59,5.55,3.59M58.27,169.48c-35.94,0-53.54,17.6-53.54,39.79,0,22.37,17.6,40,53.54,40s53.55-17.6,53.55-40c0-22.19-17.61-39.79-53.55-39.79Zm0,51.16c-9.53,0-16-3.85-16-11.19,0-7.52,6.42-11.55,16-11.55,9.35,0,15.77,4,15.77,11.55,0,7.34-6.42,11.19-15.77,11.19ZM158.76,173H121v69.31l37.78-3.85V226.69l19.43-2.2V187.08l-19.43,2.2V173Zm-2.2,70.23-56.48,5.87v24.75l56.48-5.87V243.19Zm-104,10.45-35.94,3.67v74.26H85.78V294.72L52.59,298V253.64Zm115,17.06-80.31,8.06V301.5l3.85-.37a28.31,28.31,0,0,0-.55,5.69c0,14.67,9,25.12,29.52,25.12h12.28c20.72,0,31.54-10.45,31.54-25.12a32.27,32.27,0,0,0-2.38-11.92l6.05-.55V270.7Zm-45.69,34c-2.42,0-4.4-.72-4.55-2.67-.19-2.2,2.38-3.3,5.5-3.67l8.07-.73a12.5,12.5,0,0,1,1.48-.09c2.55,0,4.75.84,4.75,2.84,0,2.38-2.57,3.3-5.5,3.48l-8.07.74a16.25,16.25,0,0,1-1.68.1Z" transform="translate(-0.7 -0.5)"/><path class="cls-1" d="M201.09,328.69v-46l36.78-2.32v19.44l108.55-7.52v36.37ZM187,248.79l169.17-10.93v28.7L187,277.5Zm13.76-76.06H237.5V207.6l104.88-6.78v29.8l-141.65,9.29Z" transform="translate(-0.7 -0.5)"/><path d="M237,173.23v34.9l1.06-.06,103.82-6.72v28.8l-140.65,9.22V173.23H237m118.64,65.16v27.7L187.47,277v-27.7l168.17-10.87M237.37,280.93v19.44l1.06-.07,107.49-7.45v35.34H201.59v-45l35.78-2.26m.63-108.7H200.23v68.21l142.65-9.35V200.28L238,207.07V172.23Zm118.64,65.09-170.17,11V278l170.17-11V237.32ZM238.37,279.86l-37.78,2.39v46.94H346.92V291.78L238.37,299.3V279.86Z" transform="translate(-0.7 -0.5)"/><path class="cls-1" d="M17.75,478.5l60.83-25.76V437.1l37.32-3.22v17l60.66,25.76-17.1,29.2L97.15,480.29,34.82,505.88ZM1.39,417.86l71.14-24.51V376.18H13.85v-30h96.37V372.1l18.6-1.94v-24.7h36.77v96.23l-36.77,3.75V406.56l-18.6,1.94v6l-94.78,32.2Z" transform="translate(-0.7 -0.5)"/><path d="M165.09,346v95.28l-35.77,3.64V406l-1.11.11L110.61,408l-.89.09v6.05L15.7,446,2.09,418.14l70.26-24.2.68-.23v-18H14.35v-29h95.37v26l1.1-.11,17.6-1.83.9-.1V346h35.77M115.4,434.43v16.81l.61.25,59.83,25.42-16.59,28.33L97.53,479.9l-.38-.15-.38.15L35,505.25,18.48,478.73l60-25.4.61-.26V437.55l36.32-3.12M166.09,345H128.32v24.75l-17.6,1.83V345.69H13.35v31H72V393L.7,417.57l14.48,29.7,95.54-32.45V409l17.6-1.83V446l37.77-3.85V345ZM116.4,433.34l-38.32,3.3v15.77L17,478.26l17.6,28.24,62.53-25.67,62.52,25.67,17.61-30.07L116.4,450.57V433.34Z" transform="translate(-0.7 -0.5)"/><rect class="cls-1" x="367.84" y="170.01" width="160.41" height="160.41"/><path d="M528.45,171v159.4H369V171H528.45m1-1H368v161.4H529.45V170Z" transform="translate(-0.7 -0.5)"/><rect class="cls-1" x="367.84" y="345.02" width="160.41" height="160.41"/><path d="M528.45,346V505.43H369V346H528.45m1-1H368V506.43H529.45V345Z" transform="translate(-0.7 -0.5)"/><rect class="cls-1" x="193.42" y="345.02" width="160.41" height="160.41"/><path d="M354,346V505.43H194.62V346H354m1-1H193.62V506.43H355V345Z" transform="translate(-0.7 -0.5)"/></g></g></svg>