<svg width="31" height="29" viewBox="0 0 31 29" fill="none" xmlns="http://www.w3.org/2000/svg">
<g filter="url(#filter0_d)">
<path d="M22.1389 23.5069L21.7854 23.8604L21.4318 23.5069L13.4544 15.5295C12.3317 16.0256 11.075 16.1461 9.8729 15.867C8.54995 15.5598 7.38083 14.7888 6.57738 13.6938C5.77392 12.5989 5.38931 11.2523 5.49323 9.89811C5.59714 8.54395 6.18272 7.27182 7.14384 6.31224L7.14408 6.31199C8.10468 5.35425 9.37615 4.77166 10.7288 4.66948C12.0814 4.56729 13.426 4.95225 14.5195 5.75481C15.6131 6.55736 16.3836 7.72459 16.6918 9.04559C16.9718 10.246 16.8533 11.5015 16.3599 12.6238L18.8548 15.1187L20.6992 13.2743L21.0528 12.9207L21.4063 13.2743L25.0696 16.9386L25.423 17.2922L25.0695 17.6457L23.2251 19.4901L24.3369 20.6018L24.6904 20.9554L24.3369 21.3089L22.1389 23.5069ZM12.6307 9.73516C12.5483 9.5433 12.4285 9.36977 12.2783 9.22471C11.9817 8.93825 11.5845 8.77975 11.1722 8.78333C10.7598 8.78691 10.3654 8.9523 10.0739 9.24387C9.78229 9.53543 9.61691 9.92985 9.61333 10.3422C9.60974 10.7545 9.76825 11.1517 10.0547 11.4483C10.1998 11.5985 10.3733 11.7183 10.5652 11.8007C10.757 11.8831 10.9634 11.9265 11.1722 11.9283C11.381 11.9302 11.588 11.8904 11.7813 11.8113C11.9746 11.7322 12.1501 11.6155 12.2978 11.4678C12.4455 11.3202 12.5622 11.1446 12.6413 10.9513C12.7204 10.758 12.7601 10.551 12.7583 10.3422C12.7565 10.1334 12.7131 9.92702 12.6307 9.73516Z" fill="black" stroke="white"/>
<path d="M12.6257 8.86538C12.8236 9.05656 12.9815 9.28526 13.0901 9.53812C13.1988 9.79098 13.2559 10.0629 13.2583 10.3381C13.2607 10.6133 13.2083 10.8862 13.1041 11.141C12.9999 11.3957 12.846 11.6271 12.6514 11.8217C12.4568 12.0163 12.2254 12.1702 11.9707 12.2744C11.7159 12.3786 11.443 12.431 11.1678 12.4286C10.8926 12.4262 10.6207 12.3691 10.3678 12.2604C10.115 12.1518 9.88626 11.9939 9.69507 11.796C9.31754 11.4051 9.10864 10.8816 9.11336 10.3381C9.11808 9.79472 9.33605 9.27489 9.72032 8.89062C10.1046 8.50635 10.6244 8.28838 11.1678 8.28366C11.7113 8.27894 12.2348 8.48784 12.6257 8.86538Z" fill="white"/>
</g>
<defs>
<filter id="filter0_d" x="0.976562" y="0.15332" width="29.1535" height="28.4142" filterUnits="userSpaceOnUse" color-interpolation-filters="sRGB">
<feFlood flood-opacity="0" result="BackgroundImageFix"/>
<feColorMatrix in="SourceAlpha" type="matrix" values="0 0 0 0 0 0 0 0 0 0 0 0 0 0 0 0 0 0 127 0"/>
<feOffset/>
<feGaussianBlur stdDeviation="2"/>
<feColorMatrix type="matrix" values="0 0 0 0 0 0 0 0 0 0 0 0 0 0 0 0 0 0 0.25 0"/>
<feBlend mode="normal" in2="BackgroundImageFix" result="effect1_dropShadow"/>
<feBlend mode="normal" in="SourceGraphic" in2="effect1_dropShadow" result="shape"/>
</filter>
</defs>
</svg>
